<?xml version="1.0" standalone="no"?>
<!DOCTYPE svg PUBLIC "-//W3C//DTD SVG 20010904//EN"
 "http://www.w3.org/TR/2001/REC-SVG-20010904/DTD/svg10.dtd">
<svg version="1.0" xmlns="http://www.w3.org/2000/svg"
 width="760.000000pt" height="794.000000pt" viewBox="0 0 760.000000 794.000000"
 preserveAspectRatio="xMidYMid meet">
<metadata>
Created by potrace 1.16, written by Peter Selinger 2001-2019
</metadata>
<g transform="translate(0.000000,794.000000) scale(0.100000,-0.100000)"
fill="#000000" stroke="none">
<path d="M0 3970 l0 -3970 3800 0 3800 0 0 3970 0 3970 -3800 0 -3800 0 0
-3970z m3895 3218 c43 -123 80 -225 82 -228 2 -2 82 74 178 170 97 97 175 168
175 159 0 -9 -11 -119 -25 -245 -14 -126 -25 -229 -25 -230 0 -2 104 33 231
77 128 44 233 78 234 77 1 -2 -55 -95 -125 -208 -71 -113 -127 -206 -125 -208
1 -2 97 -14 211 -27 115 -14 224 -27 242 -31 33 -5 26 -10 -172 -136 -165
-105 -204 -134 -194 -143 7 -7 101 -68 208 -136 l195 -124 -190 -22 c-105 -13
-216 -26 -247 -30 l-58 -8 126 -203 c70 -112 124 -205 122 -208 -3 -2 -105 30
-227 72 -122 42 -224 74 -227 72 -2 -3 0 -92 5 -199 6 -106 9 -195 7 -196 -1
-1 -21 23 -43 55 -76 107 -207 257 -343 392 -325 324 -713 584 -1140 761 -63
26 -108 50 -100 53 8 2 103 14 210 26 107 12 207 25 222 28 l27 7 -128 205
c-70 113 -127 206 -126 208 1 1 106 -33 234 -77 127 -44 231 -76 231 -72 0 4
-11 109 -25 235 -14 126 -25 233 -25 238 0 6 79 -67 177 -162 l176 -173 52
144 c28 79 64 181 80 227 16 45 32 82 35 82 4 0 42 -100 85 -222z m-1537 -899
c530 -158 1012 -452 1402 -856 69 -71 161 -175 205 -232 44 -57 89 -115 101
-128 l20 -26 140 36 c155 39 336 71 493 87 131 13 401 13 401 1 0 -6 -15 -43
-34 -84 l-33 -74 -154 -7 c-262 -11 -539 -59 -767 -131 -59 -19 -110 -35 -114
-35 -4 0 -30 33 -57 74 -177 262 -449 541 -728 748 -262 195 -617 371 -937
464 l-126 37 0 90 0 89 28 -6 c15 -4 87 -25 160 -47z m-57 -395 c571 -184
1082 -557 1438 -1048 39 -54 95 -138 123 -185 28 -47 52 -87 53 -89 1 -1 89
27 196 62 203 68 420 117 594 135 154 16 185 17 185 8 0 -5 -39 -49 -88 -98
-77 -78 -92 -89 -122 -89 -61 0 -320 -58 -454 -100 -105 -34 -214 -77 -372
-146 -7 -3 -30 29 -54 73 -175 322 -399 598 -670 825 -242 204 -624 412 -902
493 l-58 16 0 90 c0 54 4 89 10 89 6 0 60 -16 121 -36z m123 -470 c278 -122
534 -302 761 -535 132 -135 207 -230 314 -395 75 -114 197 -351 187 -361 -6
-6 -70 17 -174 65 -29 13 -59 34 -66 45 -7 12 -34 58 -60 102 -240 408 -622
742 -1063 931 l-112 48 -15 86 c-9 47 -16 91 -16 97 0 15 95 -18 244 -83z"/>
</g>
</svg>
